<svg width="41" height="41" viewBox="0 0 41 41" fill="none" xmlns="http://www.w3.org/2000/svg">
<path d="M1 20.5C1 9.73045 9.73045 1 20.5 1C31.2696 1 40 9.73045 40 20.5C40 31.2696 31.2696 40 20.5 40C9.73045 40 1 31.2696 1 20.5Z" stroke="#757575"/>
<g clipPath="url(#clip0_1_1235)">
<path fill-rule="evenodd" clip-rule="evenodd" d="M20.5 30.4896C14.9844 30.4896 10.5 26.013 10.5 20.5052C10.5 14.9897 14.9844 10.5132 20.5 10.5132C26.0156 10.5132 30.5 14.9897 30.5 20.4975C30.5 26.0053 26.0156 30.4896 20.5 30.4896ZM28.9296 21.8646C28.6406 21.7708 26.2891 21.0756 23.6093 21.4975C24.7266 24.5599 25.1796 27.06 25.2656 27.5755C27.1875 26.2865 28.5546 24.2397 28.9296 21.8646ZM23.8359 28.3646C23.7109 27.6146 23.2109 25.0052 22.0155 21.8959C22 21.9037 21.9766 21.9115 21.9609 21.9115C17.1406 23.5912 15.4141 26.9271 15.2579 27.2396C16.7031 28.3646 18.5234 29.0365 20.5 29.0365C21.6797 29.0443 22.8124 28.8021 23.8359 28.3646ZM14.1563 26.2162C14.3516 25.888 16.6953 22.0131 21.1016 20.5834C21.2109 20.5444 21.3281 20.5131 21.4375 20.4818C21.2266 19.9975 20.9922 19.5131 20.7422 19.0365C16.4766 20.31 12.3359 20.2553 11.9609 20.2474C11.9609 20.3334 11.9532 20.4194 11.9532 20.5052C11.9609 22.7006 12.7891 24.7005 14.1563 26.2162ZM12.1407 18.7631C12.5234 18.7709 16.0391 18.7865 20.0391 17.724C18.625 15.2085 17.0937 13.099 16.8751 12.7944C14.4766 13.9194 12.6954 16.1225 12.1407 18.7631ZM18.5 12.2162C18.7344 12.5288 20.2891 14.6382 21.6875 17.2084C24.7266 16.0679 26.0078 14.349 26.164 14.1303C24.6562 12.7944 22.6718 11.9819 20.5 11.9819C19.8125 11.9819 19.1406 12.0679 18.5 12.2162ZM27.1093 15.1147C26.9297 15.3569 25.5 17.1928 22.3437 18.4819C22.5391 18.8882 22.7344 19.3022 22.9141 19.7162C22.9765 19.8647 23.0391 20.013 23.1016 20.1537C25.9453 19.7944 28.7655 20.3725 29.0468 20.4272C29.0234 18.4194 28.3046 16.5678 27.1093 15.1147Z" fill="#757575"/>
</g>
<defs>
<clipPath id="clip0_1_1235">
<rect width="20" height="20" fill="white" transform="translate(10.5 10.5)"/>
</clipPath>
</defs>
</svg>
