<svg width="41" height="41" viewBox="0 0 41 41" fill="none" xmlns="http://www.w3.org/2000/svg">
<path d="M1.00003 20.5C1.00003 9.73045 9.73048 1 20.5 1C31.2696 1 40 9.73045 40 20.5C40 31.2696 31.2696 40 20.5 40C9.73048 40 1.00003 31.2696 1.00003 20.5Z" stroke="#757575"/>
<g clip-path="url(#clip0_1_1241)">
<path d="M30.5 20.5C30.5 25.4914 26.843 29.6285 22.0625 30.3785V23.3906H24.3926L24.836 20.5H22.0625V18.6242C22.0625 17.8332 22.45 17.0625 23.6922 17.0625H24.9532V14.6016C24.9532 14.6016 23.8086 14.4063 22.7145 14.4063C20.4305 14.4063 18.9375 15.7906 18.9375 18.2969V20.5H16.3985V23.3906H18.9375V30.3785C14.1571 29.6285 10.5 25.4914 10.5 20.5C10.5 14.9773 14.9774 10.5 20.5 10.5C26.0227 10.5 30.5 14.9773 30.5 20.5Z" fill="#757575"/>
</g>
<defs>
<clipPath id="clip0_1_1241">
<rect width="20" height="20" fill="white" transform="translate(10.5 10.5)"/>
</clipPath>
</defs>
</svg>
