<svg width="41" height="41" viewBox="0 0 41 41" fill="none" xmlns="http://www.w3.org/2000/svg">
<path d="M1 20.5C1 9.73045 9.73046 1 20.5 1C31.2696 1 40 9.73045 40 20.5C40 31.2696 31.2696 40 20.5 40C9.73046 40 1 31.2696 1 20.5Z" stroke="#757575"/>
<g clipPath="url(#clip0_1_1239)">
<path d="M25.5 10.5H15.5002C12.7505 10.5 10.5003 12.7502 10.5003 15.4999V25.5001C10.5003 28.2491 12.7505 30.5 15.5002 30.5H25.5C28.2496 30.5 30.4998 28.2491 30.4998 25.5001V15.4999C30.4998 12.7502 28.2496 10.5 25.5 10.5ZM28.8331 25.5001C28.8331 27.3376 27.3384 28.8333 25.5 28.8333H15.5002C13.6625 28.8333 12.167 27.3376 12.167 25.5001V15.4999C12.167 13.6619 13.6625 12.1667 15.5002 12.1667H25.5C27.3384 12.1667 28.8331 13.6619 28.8331 15.4999V25.5001Z" fill="#757575"/>
<path d="M25.9176 16.3329C26.6079 16.3329 27.1675 15.7733 27.1675 15.083C27.1675 14.3926 26.6079 13.833 25.9176 13.833C25.2272 13.833 24.6676 14.3926 24.6676 15.083C24.6676 15.7733 25.2272 16.3329 25.9176 16.3329Z" fill="#757575"/>
<path d="M20.5002 15.5C17.7383 15.5 15.5003 17.7382 15.5003 20.4999C15.5003 23.2606 17.7383 25.5002 20.5002 25.5002C23.2614 25.5002 25.5001 23.2606 25.5001 20.4999C25.5001 17.7382 23.2614 15.5 20.5002 15.5ZM20.5002 23.8335C18.6595 23.8335 17.167 22.3411 17.167 20.4999C17.167 18.6587 18.6595 17.1667 20.5002 17.1667C22.3409 17.1667 23.8334 18.6587 23.8334 20.4999C23.8334 22.3411 22.3409 23.8335 20.5002 23.8335Z" fill="#757575"/>
</g>
<defs>
<clipPath id="clip0_1_1239">
<rect width="20" height="20" fill="white" transform="translate(10.5 10.5)"/>
</clipPath>
</defs>
</svg>
