<svg width="41" height="41" viewBox="0 0 41 41" fill="none" xmlns="http://www.w3.org/2000/svg">
<path d="M1 20.5C1 9.73045 9.73045 1 20.5 1C31.2696 1 40 9.73045 40 20.5C40 31.2696 31.2696 40 20.5 40C9.73045 40 1 31.2696 1 20.5Z" stroke="#757575"/>
<g clip-path="url(#clip0_1_1237)">
<path d="M30.495 30.4999L30.5 30.499V23.164C30.5 19.5757 29.7275 16.8115 25.5325 16.8115C23.5158 16.8115 22.1625 17.9182 21.61 18.9674H21.5517V17.1465H17.5742V30.499H21.7158V23.8874C21.7158 22.1465 22.0458 20.4632 24.2017 20.4632C26.3258 20.4632 26.3575 22.4499 26.3575 23.999V30.4999H30.495Z" fill="#757575"/>
<path d="M10.83 17.147H14.9767V30.4995H10.83V17.147Z" fill="#757575"/>
<path d="M12.9017 10.5C11.5758 10.5 10.5 11.5758 10.5 12.9017C10.5 14.2275 11.5758 15.3258 12.9017 15.3258C14.2275 15.3258 15.3033 14.2275 15.3033 12.9017C15.3025 11.5758 14.2267 10.5 12.9017 10.5Z" fill="#757575"/>
</g>
<defs>
<clipPath id="clip0_1_1237">
<rect width="20" height="20" fill="white" transform="translate(10.5 10.5)"/>
</clipPath>
</defs>
</svg>
