<svg width="41" height="41" viewBox="0 0 41 41" fill="none" xmlns="http://www.w3.org/2000/svg">
<path d="M1.00003 20.5C1.00003 9.73044 9.73048 1 20.5 1C31.2696 1 40 9.73044 40 20.5C40 31.2695 31.2696 40 20.5 40C9.73048 40 1.00003 31.2695 1.00003 20.5Z" stroke="#757575"/>
<g clip-path="url(#clip0_1_1243)">
<path d="M22.3617 18.9686L29.647 10.5H27.9206L21.5947 17.8532L16.5423 10.5H10.7149L18.3552 21.6193L10.7149 30.5H12.4414L19.1217 22.7348L24.4574 30.5H30.2848L22.3612 18.9686H22.3617ZM19.997 21.7173L19.2229 20.6101L13.0634 11.7997H15.7152L20.686 18.9099L21.4601 20.0172L27.9214 29.2594H25.2696L19.997 21.7177V21.7173Z" fill="#757575"/>
</g>
<defs>
<clipPath id="clip0_1_1243">
<rect width="20" height="20" fill="white" transform="translate(10.5 10.5)"/>
</clipPath>
</defs>
</svg>
