<svg width="1255" height="102" viewBox="0 0 1255 102" fill="none" xmlns="http://www.w3.org/2000/svg">
<path d="M58.4149 134.226C46.4355 134.226 36.0728 131.841 27.3267 127.07C18.5807 122.247 11.8489 115.383 7.13133 106.477C2.41377 97.5724 0.054984 86.9976 0.054984 74.7532C0.054984 62.5087 2.41377 51.9604 7.13133 43.1084C11.8489 34.2033 18.5807 27.339 27.3267 22.5154C36.0728 17.6919 46.4355 15.2801 58.4149 15.2801C70.4474 15.2801 80.8101 17.6919 89.5032 22.5154C98.2492 27.339 104.981 34.2033 109.699 43.1084C114.416 51.9604 116.775 62.5087 116.775 74.7532C116.775 86.9976 114.416 97.5724 109.699 106.477C104.981 115.383 98.2492 122.247 89.5032 127.07C80.8101 131.841 70.4474 134.226 58.4149 134.226ZM58.4149 106.398C63.6626 106.398 68.1151 105.179 71.7725 102.741C75.43 100.249 78.1863 96.6448 80.0415 91.9272C81.9498 87.2097 82.9039 81.485 82.9039 74.7532C82.9039 67.9684 81.9498 62.2437 80.0415 57.5791C78.1863 52.8616 75.43 49.2836 71.7725 46.8453C68.1151 44.354 63.6626 43.1084 58.4149 43.1084C53.1673 43.1084 48.7148 44.354 45.0574 46.8453C41.4529 49.2836 38.6966 52.8616 36.7884 57.5791C34.8801 62.2437 33.926 67.9684 33.926 74.7532C33.926 81.485 34.8801 87.2097 36.7884 91.9272C38.6966 96.6448 41.4529 100.249 45.0574 102.741C48.7148 105.179 53.1673 106.398 58.4149 106.398ZM130.689 132V46.1298H161.698V66.3252L160.346 63.4628C163.208 56.731 167.025 51.8014 171.795 48.6741C176.566 45.4937 182.105 43.9035 188.413 43.9035C190.162 43.9035 191.964 44.036 193.82 44.301C195.728 44.5661 197.663 45.0166 199.624 45.6527L197.795 71.8908C193.926 70.8837 190.268 70.3801 186.823 70.3801C183.589 70.3801 180.489 70.9102 177.52 71.9703C174.605 72.9775 172.008 74.6737 169.728 77.0589C167.502 79.3912 165.726 82.5451 164.401 86.5206C163.129 90.496 162.493 95.3991 162.493 101.23V132H130.689ZM211.232 132V46.1298H243.036V132H211.232ZM227.134 39.1329C221.091 39.1329 216.374 37.4367 212.981 34.0443C209.589 30.6519 207.893 25.9343 207.893 19.8916C207.893 13.8489 209.589 9.13134 212.981 5.73893C216.374 2.34653 221.091 0.650324 227.134 0.650324C233.177 0.650324 237.894 2.34653 241.287 5.73893C244.679 9.13134 246.375 13.8489 246.375 19.8916C246.375 25.9343 244.679 30.6519 241.287 34.0443C237.894 37.4367 233.177 39.1329 227.134 39.1329ZM298.057 165.235C283.321 165.235 272.322 163.353 265.06 159.59C257.851 155.879 254.247 150.128 254.247 142.336C254.247 137.301 255.545 133.484 258.143 130.887C260.74 128.29 263.655 126.487 266.889 125.48C264.928 123.943 263.417 122.114 262.357 119.994C261.35 117.874 260.846 115.595 260.846 113.156C260.846 109.711 261.906 106.742 264.026 104.251C266.2 101.76 269.301 99.9312 273.329 98.765C269.142 96.0617 265.882 92.6693 263.549 88.5878C261.217 84.4533 260.051 79.8418 260.051 74.7532C260.051 68.6574 261.694 63.3038 264.981 58.6923C268.32 54.0277 272.905 50.3968 278.736 47.7995C284.619 45.2021 291.378 43.9035 299.011 43.9035C306.644 43.9035 313.375 45.2021 319.206 47.7995C325.037 50.3968 329.595 54.0277 332.882 58.6923C336.221 63.3038 337.891 68.6574 337.891 74.7532C337.891 80.7959 336.248 86.1495 332.961 90.8141C329.675 95.4256 325.09 99.0301 319.206 101.627C313.375 104.225 306.617 105.523 298.931 105.523H294.479C290.397 105.523 288.356 106.504 288.356 108.465C288.356 110.32 290.503 111.248 294.797 111.248H312.289C317.483 111.248 322.095 111.911 326.123 113.236C330.205 114.508 333.677 116.337 336.539 118.722C339.401 121.107 341.575 123.97 343.059 127.309C344.543 130.648 345.285 134.359 345.285 138.44C345.285 147.398 341.522 154.104 333.995 158.556C326.468 163.009 315.019 165.235 299.647 165.235H298.057ZM299.011 146.55H300.283C308.923 146.55 313.243 143.953 313.243 138.758C313.243 136.903 312.501 135.313 311.017 133.988C309.585 132.663 306.67 132 302.271 132H293.843C292.093 132 290.238 132.557 288.277 133.67C286.369 134.783 285.415 136.665 285.415 139.315C285.415 141.753 286.501 143.555 288.674 144.722C290.901 145.941 294.346 146.55 299.011 146.55ZM299.011 86.4411C301.979 86.4411 304.285 85.4074 305.928 83.3402C307.624 81.2199 308.472 78.3576 308.472 74.7532C308.472 71.1487 307.624 68.3129 305.928 66.2457C304.285 64.1254 301.979 63.0653 299.011 63.0653C296.095 63.0653 293.763 64.1254 292.014 66.2457C290.318 68.3129 289.47 71.1487 289.47 74.7532C289.47 78.3576 290.318 81.2199 292.014 83.3402C293.763 85.4074 296.095 86.4411 299.011 86.4411ZM310.619 58.9308V50.1052C310.619 42.4193 312.66 36.6946 316.741 32.9312C320.823 29.1677 327.263 27.286 336.062 27.286H342.661V49.5487H332.246C330.602 49.5487 329.516 49.8402 328.986 50.4233C328.509 51.0063 328.27 52.199 328.27 54.0012V58.9308H310.619ZM357.53 132V46.1298H389.333V132H357.53ZM373.432 39.1329C367.389 39.1329 362.671 37.4367 359.279 34.0443C355.886 30.6519 354.19 25.9343 354.19 19.8916C354.19 13.8489 355.886 9.13134 359.279 5.73893C362.671 2.34653 367.389 0.650324 373.432 0.650324C379.474 0.650324 384.192 2.34653 387.584 5.73893C390.977 9.13134 392.673 13.8489 392.673 19.8916C392.673 25.9343 390.977 30.6519 387.584 34.0443C384.192 37.4367 379.474 39.1329 373.432 39.1329ZM407.541 132V46.1298H438.55V66.2457L437.914 62.6677C440.776 56.413 444.513 51.7219 449.125 48.5945C453.789 45.4672 459.408 43.9035 465.981 43.9035C473.083 43.9035 478.702 45.5467 482.837 48.8331C487.024 52.1195 490.019 56.572 491.821 62.1907C493.623 67.8093 494.525 74.0906 494.525 81.0344V132H462.721V82.9426C462.721 77.589 462.058 73.6135 460.733 71.0162C459.408 68.4189 456.917 67.1203 453.259 67.1203C448.382 67.1203 444.831 69.5055 442.605 74.2761C440.432 78.9937 439.345 86.5736 439.345 97.0158V132H407.541ZM538.811 134.147C533.511 134.147 528.396 133.299 523.466 131.602C518.536 129.906 514.481 127.15 511.301 123.333C508.121 119.464 506.53 114.322 506.53 107.909C506.53 100.965 508.518 95.3726 512.494 91.1321C516.522 86.8386 522.088 83.7112 529.191 81.75C536.293 79.7888 544.536 78.8082 553.918 78.8082H564.254L562.823 81.591V76.4229C562.823 71.7053 562.055 68.3394 560.517 66.3252C559.033 64.2579 556.568 63.2243 553.123 63.2243C549.731 63.2243 547.16 64.1519 545.411 66.0071C543.714 67.8093 542.469 70.5922 541.674 74.3556L510.426 69.5851C511.593 64.7085 513.845 60.3354 517.185 56.466C520.524 52.5435 525.242 49.4426 531.337 47.1634C537.486 44.8841 545.305 43.7445 554.793 43.7445C562.85 43.7445 569.846 44.8841 575.783 47.1634C581.72 49.3896 586.305 53.4181 589.538 59.2488C592.825 65.0265 594.468 73.269 594.468 83.9763V105.285C594.468 107.087 594.706 108.28 595.183 108.863C595.714 109.446 596.8 109.737 598.443 109.737H601.544V132H588.028C579.865 132 573.848 130.118 569.979 126.355C566.163 122.538 564.254 116.814 564.254 109.181V106.716L570.138 109.499C569.555 111.831 568.68 114.402 567.514 117.211C566.401 120.021 564.705 122.724 562.426 125.321C560.199 127.866 557.178 129.986 553.361 131.682C549.545 133.325 544.695 134.147 538.811 134.147ZM548.591 114.031C551.771 114.031 554.422 113.368 556.542 112.043C558.715 110.665 560.358 108.757 561.471 106.318C562.585 103.88 563.141 101.044 563.141 97.8109V95.0281H555.826C551.268 95.0281 547.743 95.6377 545.252 96.8568C542.813 98.0229 541.117 99.4541 540.163 101.15C539.262 102.794 538.811 104.384 538.811 105.921C538.811 106.663 538.997 107.697 539.368 109.022C539.792 110.294 540.693 111.46 542.071 112.52C543.449 113.527 545.623 114.031 548.591 114.031ZM642.969 132C634.223 132 627.809 130.118 623.727 126.355C619.646 122.591 617.605 116.867 617.605 109.181V68.3924H606.553V46.1298H617.605V30.1483L649.409 22.1974V46.1298H664.357V68.3924H649.409V105.285C649.409 107.087 649.648 108.28 650.125 108.863C650.655 109.446 651.741 109.737 653.384 109.737H666.504V132H642.969ZM680.974 132V46.1298H712.778V132H680.974ZM696.876 39.1329C690.833 39.1329 686.116 37.4367 682.723 34.0443C679.331 30.6519 677.635 25.9343 677.635 19.8916C677.635 13.8489 679.331 9.13134 682.723 5.73893C686.116 2.34653 690.833 0.650324 696.876 0.650324C702.919 0.650324 707.636 2.34653 711.029 5.73893C714.421 9.13134 716.117 13.8489 716.117 19.8916C716.117 25.9343 714.421 30.6519 711.029 34.0443C707.636 37.4367 702.919 39.1329 696.876 39.1329ZM754.282 132L721.604 46.1298H757.224L773.762 107.829H771.854L788.312 46.1298H823.932L791.254 132H754.282ZM873.626 134.226C865.039 134.226 857.088 132.398 849.773 128.74C842.511 125.03 836.654 119.782 832.201 112.997C827.749 106.212 825.522 98.1555 825.522 88.8263C825.522 79.6563 827.669 71.7318 831.963 65.053C836.309 58.3212 842.113 53.1266 849.375 49.4692C856.69 45.7587 864.827 43.9035 873.785 43.9035C878.661 43.9035 883.617 44.6191 888.653 46.0502C893.742 47.4814 898.433 50.0522 902.726 53.7627C907.02 57.4201 910.465 62.5882 913.062 69.267C915.713 75.9458 917.038 84.5328 917.038 95.0281H845.956V79.4442H888.494L886.983 83.0222C886.453 78.7286 885.526 75.2567 884.2 72.6064C882.928 69.9031 881.312 67.9419 879.35 66.7227C877.442 65.4506 875.269 64.8145 872.831 64.8145C869.279 64.8145 866.443 65.9276 864.323 68.1539C862.203 70.3271 860.666 73.2425 859.712 76.8999C858.757 80.5574 858.28 84.5858 858.28 88.9854C858.28 95.7172 859.42 101.203 861.699 105.444C863.979 109.631 867.848 111.725 873.308 111.725C876.488 111.725 879.297 110.903 881.736 109.26C884.174 107.564 886.135 104.808 887.619 100.991L915.607 107.273C913.592 113.898 910.306 119.199 905.748 123.174C901.189 127.097 896.047 129.933 890.323 131.682C884.651 133.378 879.085 134.226 873.626 134.226ZM960.053 132V17.5063H992.651V104.172H1046.16V132H960.053ZM1084.72 134.147C1079.42 134.147 1074.31 133.299 1069.38 131.602C1064.45 129.906 1060.39 127.15 1057.21 123.333C1054.03 119.464 1052.44 114.322 1052.44 107.909C1052.44 100.965 1054.43 95.3726 1058.41 91.1321C1062.43 86.8386 1068 83.7112 1075.1 81.75C1082.21 79.7888 1090.45 78.8082 1099.83 78.8082H1110.17L1108.74 81.591V76.4229C1108.74 71.7053 1107.97 68.3394 1106.43 66.3252C1104.95 64.2579 1102.48 63.2243 1099.04 63.2243C1095.64 63.2243 1093.07 64.1519 1091.32 66.0071C1089.63 67.8093 1088.38 70.5922 1087.59 74.3556L1056.34 69.5851C1057.5 64.7085 1059.76 60.3354 1063.1 56.466C1066.44 52.5435 1071.15 49.4426 1077.25 47.1634C1083.4 44.8841 1091.22 43.7445 1100.7 43.7445C1108.76 43.7445 1115.76 44.8841 1121.7 47.1634C1127.63 49.3896 1132.22 53.4181 1135.45 59.2488C1138.74 65.0265 1140.38 73.269 1140.38 83.9763V105.285C1140.38 107.087 1140.62 108.28 1141.1 108.863C1141.63 109.446 1142.71 109.737 1144.36 109.737H1147.46V132H1133.94C1125.78 132 1119.76 130.118 1115.89 126.355C1112.07 122.538 1110.17 116.814 1110.17 109.181V106.716L1116.05 109.499C1115.47 111.831 1114.59 114.402 1113.43 117.211C1112.31 120.021 1110.62 122.724 1108.34 125.321C1106.11 127.866 1103.09 129.986 1099.27 131.682C1095.46 133.325 1090.61 134.147 1084.72 134.147ZM1094.5 114.031C1097.68 114.031 1100.33 113.368 1102.45 112.043C1104.63 110.665 1106.27 108.757 1107.38 106.318C1108.5 103.88 1109.05 101.044 1109.05 97.8109V95.0281H1101.74C1097.18 95.0281 1093.65 95.6377 1091.16 96.8568C1088.73 98.0229 1087.03 99.4541 1086.08 101.15C1085.17 102.794 1084.72 104.384 1084.72 105.921C1084.72 106.663 1084.91 107.697 1085.28 109.022C1085.7 110.294 1086.61 111.46 1087.98 112.52C1089.36 113.527 1091.53 114.031 1094.5 114.031ZM1219.01 134.226C1212.12 134.226 1206.43 132.716 1201.92 129.694C1197.41 126.62 1193.52 121.796 1190.23 115.223L1191.74 115.383V132H1161.53V12.7358H1193.33V62.8267L1191.5 61.6341C1194.95 55.3263 1198.95 50.7943 1203.51 48.038C1208.12 45.2817 1213.53 43.9035 1219.73 43.9035C1227.15 43.9035 1233.49 45.6792 1238.73 49.2306C1243.98 52.729 1247.98 57.8707 1250.74 64.6555C1253.55 71.3873 1254.95 79.6032 1254.95 89.3034C1254.95 98.8975 1253.55 107.061 1250.74 113.792C1247.93 120.471 1243.85 125.56 1238.49 129.058C1233.14 132.504 1226.65 134.226 1219.01 134.226ZM1206.85 110.93C1211.57 110.93 1215.2 108.916 1217.74 104.887C1220.34 100.859 1221.64 95.4521 1221.64 88.6673C1221.64 81.8825 1220.37 76.6084 1217.82 72.8449C1215.33 69.0285 1211.73 67.1203 1207.01 67.1203C1203.99 67.1203 1201.31 67.9684 1198.98 69.6646C1196.65 71.3078 1194.82 73.7726 1193.49 77.0589C1192.22 80.2923 1191.58 84.2678 1191.58 88.9854C1191.58 96.0882 1193.02 101.521 1195.88 105.285C1198.79 109.048 1202.45 110.93 1206.85 110.93Z" fill="white"/>
</svg>
